<svg width="354" height="373" viewBox="0 0 354 373" fill="none" xmlns="http://www.w3.org/2000/svg">
<path d="M319.054 351.708C319.054 351.708 323.695 342.636 332.196 342.798C340.697 342.96 348.008 348.356 353.001 340.289C353.001 340.289 351.761 350.928 339.282 347.001C328.377 343.569 323.201 348.27 319.054 351.708Z" fill="#F1F1F1"/>
<path d="M341.948 344.408C345.359 344.298 348.217 343.894 349.385 340.017C349.385 340.017 351.159 346.631 339.323 346.935L341.948 344.408Z" fill="#F1F1F1"/>
<path d="M339.602 343.875C342.384 343.785 344.999 343.439 345.951 340.277C345.951 340.277 347.398 345.671 337.746 345.919L339.602 343.875Z" fill="#F1F1F1"/>
<path d="M7.08437 366.392C5.7953 366.392 4.74062 366.283 3.9203 366.064C3.1078 365.837 2.4789 365.548 2.03358 365.197C1.58046 364.845 1.26796 364.478 1.09608 364.095C0.932022 363.712 0.849991 363.369 0.849991 363.064C0.849991 362.337 1.00624 361.783 1.31874 361.4C1.63124 361.009 2.02577 360.74 2.50233 360.591C2.98671 360.443 3.49843 360.369 4.03749 360.369C4.03749 361.454 4.22108 362.322 4.58827 362.97C4.95546 363.611 5.41249 364.072 5.95937 364.353C6.50624 364.626 7.06093 364.763 7.62343 364.763C8.45155 364.763 9.09608 364.525 9.55702 364.048C10.0258 363.564 10.2601 363.044 10.2601 362.49C10.2601 361.974 10.0883 361.533 9.74452 361.165C9.40077 360.79 8.91249 360.447 8.27968 360.134C7.64687 359.814 6.89687 359.478 6.02968 359.126C4.7953 358.611 3.8539 358.079 3.20546 357.533C2.53358 356.978 2.06093 356.38 1.78749 355.74C1.51405 355.099 1.37733 354.427 1.37733 353.724C1.37733 352.701 1.66249 351.822 2.2328 351.087C2.7953 350.353 3.56483 349.786 4.5414 349.388C5.51796 348.982 6.61562 348.779 7.83437 348.779C9.13124 348.779 10.1898 348.931 11.0101 349.236C11.8226 349.54 12.4242 349.927 12.8148 350.396C13.2055 350.857 13.4008 351.326 13.4008 351.802C13.4008 352.411 13.1391 352.923 12.6156 353.337C12.1 353.744 11.2016 353.947 9.9203 353.947C9.9203 353.431 9.81874 352.892 9.61562 352.329C9.40468 351.79 9.09608 351.341 8.68983 350.982C8.2914 350.622 7.81483 350.443 7.26015 350.443C6.6664 350.443 6.1664 350.587 5.76015 350.876C5.3539 351.158 5.15077 351.619 5.15077 352.259C5.15077 352.579 5.25233 352.908 5.45546 353.244C5.6664 353.579 6.08046 353.943 6.69765 354.333C7.31483 354.732 8.21327 355.169 9.39296 355.646C10.6117 356.122 11.5609 356.638 12.2406 357.193C12.9203 357.747 13.393 358.341 13.6586 358.974C13.932 359.607 14.0687 360.306 14.0687 361.072C14.0687 362.111 13.7875 363.029 13.225 363.826C12.6547 364.63 11.8461 365.259 10.7992 365.712C9.75233 366.165 8.51405 366.392 7.08437 366.392ZM37.2976 364.693V366.158H27.9344V364.693H28.6961C29.1648 364.693 29.5281 364.607 29.7859 364.435C30.0516 364.255 30.1844 363.829 30.1844 363.158V350.677H28.5555C27.8367 350.677 27.3406 350.798 27.0672 351.04C26.7937 351.275 26.6258 351.658 26.5633 352.189L26.3523 354.017H24.4773L24.5945 349.025H40.6023L40.7195 354.017H38.8562L38.657 352.189C38.5945 351.658 38.4266 351.275 38.1531 351.04C37.8875 350.798 37.3914 350.677 36.6648 350.677H35.0359V363.251C35.0359 363.892 35.1726 364.294 35.4461 364.458C35.7195 364.615 36.0789 364.693 36.5242 364.693H37.2976ZM59.8586 366.392C58.5226 366.392 57.3351 366.208 56.2961 365.841C55.2648 365.474 54.4562 364.888 53.8703 364.083C53.2844 363.271 52.9914 362.208 52.9914 360.896V351.826C52.9914 351.24 52.8391 350.872 52.5344 350.724C52.2375 350.568 51.8781 350.49 51.4562 350.49H50.7648V349.025H59.9992V350.49H59.3078C58.8937 350.49 58.5383 350.572 58.2414 350.736C57.9445 350.892 57.7961 351.29 57.7961 351.931V361.119C57.7961 362.431 58.0773 363.326 58.6398 363.802C59.2101 364.271 60.0187 364.505 61.0656 364.505C61.6203 364.505 62.132 364.388 62.6008 364.154C63.0617 363.919 63.4328 363.54 63.7141 363.017C63.9953 362.486 64.1359 361.779 64.1359 360.896V351.826C64.1359 351.24 63.9953 350.872 63.7141 350.724C63.4328 350.568 63.0773 350.49 62.6476 350.49H61.9445V349.025H68.425V350.49H67.7101C67.2805 350.49 66.9172 350.572 66.6203 350.736C66.3234 350.892 66.175 351.29 66.175 351.931V360.954C66.175 362.025 65.9641 362.966 65.5422 363.779C65.1125 364.599 64.4328 365.24 63.5031 365.701C62.5812 366.161 61.3664 366.392 59.8586 366.392ZM87.2711 366.158H78.9156V364.693H80.193C80.4742 364.693 80.6969 364.572 80.8609 364.329C81.0328 364.079 81.1187 363.767 81.1187 363.392V351.779C81.1187 351.333 81.0133 351.009 80.8023 350.806C80.5992 350.595 80.3297 350.49 79.9937 350.49H78.9156V349.025H87.2711C90.0523 349.025 92.2437 349.685 93.8453 351.005C95.4469 352.326 96.2477 354.345 96.2477 357.064C96.2477 358.806 95.9078 360.365 95.2281 361.74C94.5484 363.115 93.5406 364.197 92.2047 364.986C90.8687 365.767 89.2242 366.158 87.2711 366.158ZM86.7203 350.677H85.9V364.482H86.6969C87.6734 364.482 88.4859 364.173 89.1344 363.556C89.7906 362.939 90.2906 362.076 90.6344 360.966C90.9781 359.849 91.15 358.548 91.15 357.064C91.15 354.837 90.7711 353.216 90.0133 352.201C89.2555 351.185 88.1578 350.677 86.7203 350.677ZM116.852 364.693V366.158H107.617V364.693H108.895C109.113 364.693 109.32 364.595 109.516 364.4C109.719 364.197 109.82 363.919 109.82 363.568V351.755C109.82 351.326 109.719 351.009 109.516 350.806C109.32 350.595 109.113 350.49 108.895 350.49H107.617V349.025H116.852V350.49H115.539C114.93 350.49 114.625 350.919 114.625 351.779V363.521C114.625 363.872 114.715 364.158 114.895 364.376C115.082 364.587 115.297 364.693 115.539 364.693H116.852ZM136.787 366.392C134.858 366.392 133.264 366.025 132.006 365.29C130.733 364.556 129.784 363.525 129.159 362.197C128.534 360.869 128.221 359.318 128.221 357.544C128.221 355.763 128.537 354.216 129.17 352.904C129.803 351.599 130.752 350.583 132.018 349.857C133.291 349.122 134.889 348.755 136.811 348.755C138.639 348.755 140.186 349.119 141.452 349.845C142.709 350.579 143.666 351.607 144.323 352.927C144.979 354.24 145.307 355.786 145.307 357.568C145.307 359.333 144.979 360.88 144.323 362.208C143.666 363.529 142.702 364.556 141.428 365.29C140.162 366.025 138.616 366.392 136.787 366.392ZM136.787 364.646C138.069 364.646 138.967 364.029 139.483 362.794C140.006 361.552 140.268 359.81 140.268 357.568C140.268 355.326 140.01 353.591 139.495 352.365C138.987 351.13 138.092 350.513 136.811 350.513C135.514 350.513 134.596 351.13 134.057 352.365C133.526 353.591 133.26 355.326 133.26 357.568C133.26 359.81 133.526 361.552 134.057 362.794C134.596 364.029 135.506 364.646 136.787 364.646ZM181.148 366.158H172.558V364.693H173.8C174.144 364.693 174.39 364.576 174.538 364.341C174.687 364.099 174.761 363.775 174.761 363.369V351.802C174.761 351.294 174.644 350.951 174.409 350.771C174.183 350.583 173.956 350.49 173.73 350.49H172.558V349.025H180.433C182.847 349.025 184.698 349.345 185.987 349.986C187.277 350.626 187.921 351.697 187.921 353.197C187.921 353.939 187.753 354.56 187.417 355.06C187.081 355.576 186.64 355.99 186.093 356.302C185.546 356.615 184.956 356.853 184.323 357.017V357.134C185.581 357.361 186.609 357.814 187.405 358.494C188.21 359.173 188.612 360.142 188.612 361.4C188.612 364.572 186.124 366.158 181.148 366.158ZM180.163 350.677H179.542V356.361H180.21C181.109 356.361 181.784 356.138 182.237 355.693C182.698 355.247 182.929 354.497 182.929 353.443C182.929 352.411 182.687 351.693 182.202 351.286C181.726 350.88 181.046 350.677 180.163 350.677ZM180.843 358.025H179.542V364.505H180.784C181.636 364.505 182.3 364.271 182.777 363.802C183.261 363.326 183.503 362.501 183.503 361.329C183.503 359.126 182.616 358.025 180.843 358.025ZM214.548 360.661L214.384 366.158H199.431V364.693H200.709C200.927 364.693 201.134 364.595 201.33 364.4C201.533 364.197 201.634 363.911 201.634 363.544V351.708C201.634 351.294 201.525 350.99 201.306 350.794C201.095 350.591 200.83 350.49 200.509 350.49H199.431V349.025H208.666V350.49H207.494C207.064 350.49 206.783 350.591 206.65 350.794C206.525 350.99 206.462 351.279 206.462 351.661V364.505H210.74C211.17 364.505 211.541 364.361 211.853 364.072C212.166 363.783 212.423 363.247 212.627 362.466L213.13 360.661H214.548ZM240.391 361.576L240.227 366.158H225.273V364.693H226.492C226.812 364.693 227.055 364.583 227.219 364.365C227.391 364.138 227.477 363.857 227.477 363.521V351.779C227.477 351.224 227.367 350.872 227.148 350.724C226.938 350.568 226.703 350.49 226.445 350.49H225.273V349.025H239.5L239.582 353.607H237.59L237.461 352.4C237.398 351.767 237.254 351.322 237.027 351.064C236.809 350.806 236.418 350.677 235.855 350.677H232.258V356.384H237.918V358.025H232.258V364.505H236.559C237.066 364.505 237.453 364.349 237.719 364.036C237.984 363.724 238.156 363.302 238.234 362.771L238.422 361.576H240.391ZM257.373 366.392C256.084 366.392 255.03 366.283 254.209 366.064C253.397 365.837 252.768 365.548 252.323 365.197C251.87 364.845 251.557 364.478 251.385 364.095C251.221 363.712 251.139 363.369 251.139 363.064C251.139 362.337 251.295 361.783 251.608 361.4C251.92 361.009 252.315 360.74 252.791 360.591C253.276 360.443 253.787 360.369 254.327 360.369C254.327 361.454 254.51 362.322 254.877 362.97C255.245 363.611 255.702 364.072 256.248 364.353C256.795 364.626 257.35 364.763 257.912 364.763C258.741 364.763 259.385 364.525 259.846 364.048C260.315 363.564 260.549 363.044 260.549 362.49C260.549 361.974 260.377 361.533 260.034 361.165C259.69 360.79 259.202 360.447 258.569 360.134C257.936 359.814 257.186 359.478 256.319 359.126C255.084 358.611 254.143 358.079 253.495 357.533C252.823 356.978 252.35 356.38 252.077 355.74C251.803 355.099 251.666 354.427 251.666 353.724C251.666 352.701 251.952 351.822 252.522 351.087C253.084 350.353 253.854 349.786 254.83 349.388C255.807 348.982 256.905 348.779 258.123 348.779C259.42 348.779 260.479 348.931 261.299 349.236C262.112 349.54 262.713 349.927 263.104 350.396C263.495 350.857 263.69 351.326 263.69 351.802C263.69 352.411 263.428 352.923 262.905 353.337C262.389 353.744 261.491 353.947 260.209 353.947C260.209 353.431 260.108 352.892 259.905 352.329C259.694 351.79 259.385 351.341 258.979 350.982C258.58 350.622 258.104 350.443 257.549 350.443C256.955 350.443 256.455 350.587 256.049 350.876C255.643 351.158 255.44 351.619 255.44 352.259C255.44 352.579 255.541 352.908 255.745 353.244C255.955 353.579 256.37 353.943 256.987 354.333C257.604 354.732 258.502 355.169 259.682 355.646C260.901 356.122 261.85 356.638 262.53 357.193C263.209 357.747 263.682 358.341 263.948 358.974C264.221 359.607 264.358 360.306 264.358 361.072C264.358 362.111 264.077 363.029 263.514 363.826C262.944 364.63 262.135 365.259 261.088 365.712C260.041 366.165 258.803 366.392 257.373 366.392ZM281.505 366.392C280.216 366.392 279.161 366.283 278.341 366.064C277.528 365.837 276.899 365.548 276.454 365.197C276.001 364.845 275.688 364.478 275.516 364.095C275.352 363.712 275.27 363.369 275.27 363.064C275.27 362.337 275.427 361.783 275.739 361.4C276.052 361.009 276.446 360.74 276.923 360.591C277.407 360.443 277.919 360.369 278.458 360.369C278.458 361.454 278.641 362.322 279.009 362.97C279.376 363.611 279.833 364.072 280.38 364.353C280.927 364.626 281.481 364.763 282.044 364.763C282.872 364.763 283.516 364.525 283.977 364.048C284.446 363.564 284.68 363.044 284.68 362.49C284.68 361.974 284.509 361.533 284.165 361.165C283.821 360.79 283.333 360.447 282.7 360.134C282.067 359.814 281.317 359.478 280.45 359.126C279.216 358.611 278.274 358.079 277.626 357.533C276.954 356.978 276.481 356.38 276.208 355.74C275.934 355.099 275.798 354.427 275.798 353.724C275.798 352.701 276.083 351.822 276.653 351.087C277.216 350.353 277.985 349.786 278.962 349.388C279.938 348.982 281.036 348.779 282.255 348.779C283.552 348.779 284.61 348.931 285.43 349.236C286.243 349.54 286.845 349.927 287.235 350.396C287.626 350.857 287.821 351.326 287.821 351.802C287.821 352.411 287.559 352.923 287.036 353.337C286.52 353.744 285.622 353.947 284.341 353.947C284.341 353.431 284.239 352.892 284.036 352.329C283.825 351.79 283.516 351.341 283.11 350.982C282.712 350.622 282.235 350.443 281.68 350.443C281.087 350.443 280.587 350.587 280.18 350.876C279.774 351.158 279.571 351.619 279.571 352.259C279.571 352.579 279.673 352.908 279.876 353.244C280.087 353.579 280.501 353.943 281.118 354.333C281.735 354.732 282.634 355.169 283.813 355.646C285.032 356.122 285.981 356.638 286.661 357.193C287.341 357.747 287.813 358.341 288.079 358.974C288.352 359.607 288.489 360.306 288.489 361.072C288.489 362.111 288.208 363.029 287.645 363.826C287.075 364.63 286.266 365.259 285.22 365.712C284.173 366.165 282.934 366.392 281.505 366.392ZM314.448 361.576L314.284 366.158H299.331V364.693H300.55C300.87 364.693 301.112 364.583 301.277 364.365C301.448 364.138 301.534 363.857 301.534 363.521V351.779C301.534 351.224 301.425 350.872 301.206 350.724C300.995 350.568 300.761 350.49 300.503 350.49H299.331V349.025H313.558L313.64 353.607H311.648L311.519 352.4C311.456 351.767 311.312 351.322 311.085 351.064C310.866 350.806 310.476 350.677 309.913 350.677H306.316V356.384H311.976V358.025H306.316V364.505H310.616C311.124 364.505 311.511 364.349 311.777 364.036C312.042 363.724 312.214 363.302 312.292 362.771L312.48 361.576H314.448ZM333.482 366.158H325.127V364.693H326.404C326.685 364.693 326.908 364.572 327.072 364.329C327.244 364.079 327.33 363.767 327.33 363.392V351.779C327.33 351.333 327.224 351.009 327.013 350.806C326.81 350.595 326.541 350.49 326.205 350.49H325.127V349.025H333.482C336.263 349.025 338.455 349.685 340.056 351.005C341.658 352.326 342.459 354.345 342.459 357.064C342.459 358.806 342.119 360.365 341.439 361.74C340.759 363.115 339.752 364.197 338.416 364.986C337.08 365.767 335.435 366.158 333.482 366.158ZM332.931 350.677H332.111V364.482H332.908C333.884 364.482 334.697 364.173 335.345 363.556C336.002 362.939 336.502 362.076 336.845 360.966C337.189 359.849 337.361 358.548 337.361 357.064C337.361 354.837 336.982 353.216 336.224 352.201C335.466 351.185 334.369 350.677 332.931 350.677Z" fill="#F1F1F1"/>
<circle cx="177" cy="164" r="162" stroke="#F1F1F1" stroke-width="4"/>
<path d="M64.2 239.496C57.6987 239.496 54.448 237.717 54.448 234.16C54.448 233.179 54.5093 232.565 54.632 232.32C55.368 229.621 60.9493 225.512 71.376 219.992C81.68 214.595 91.6773 210.731 101.368 208.4C110.2 206.315 118.664 204.475 126.76 202.88C134.856 201.163 142.645 199.752 150.128 198.648C158.224 192.147 163.131 185.645 164.848 179.144C165.216 177.795 165.4 176.568 165.4 175.464C165.4 170.68 162.088 167.307 155.464 165.344C153.501 164.731 146.693 163.627 135.04 162.032C124.245 160.56 116.763 158.904 112.592 157.064C107.195 154.611 104.496 151.115 104.496 146.576C104.496 144.859 104.864 142.896 105.6 140.688C108.421 131.979 117.744 123.024 133.568 113.824C150.987 103.643 167.669 98.552 183.616 98.552C195.269 98.552 201.096 101.864 201.096 108.488C201.096 111.923 199.44 116.216 196.128 121.368C194.779 123.453 193.675 124.496 192.816 124.496C192.448 124.496 192.264 124.251 192.264 123.76C192.264 123.147 192.632 122.227 193.368 121C195.208 118.056 196.128 115.419 196.128 113.088C196.128 107.2 190.792 104.256 180.12 104.256C173.373 104.256 166.811 105.053 160.432 106.648C154.176 108.12 147.981 110.267 141.848 113.088C128.845 119.344 119.829 127.563 114.8 137.744C113.696 139.952 113.144 141.853 113.144 143.448C113.144 149.213 121.179 153.323 137.248 155.776C150.373 157.616 159.205 159.272 163.744 160.744C172.331 163.443 176.44 167.184 176.072 171.968C176.44 180.187 171.901 188.528 162.456 196.992L163.744 196.808C164.235 196.685 164.848 196.624 165.584 196.624C166.32 196.624 167.179 196.624 168.16 196.624H169.08C170.184 196.624 170.736 196.992 170.736 197.728C170.736 198.955 169.571 199.629 167.24 199.752C166.627 199.875 165.952 199.936 165.216 199.936C164.48 199.936 163.744 199.997 163.008 200.12L158.224 200.672C150.741 206.56 142.277 212.019 132.832 217.048C123.387 222.077 112.776 226.677 101 230.848C84.44 236.613 72.1733 239.496 64.2 239.496ZM63.096 235.08C68.7387 235.08 80.6987 231.707 98.976 224.96C116.272 218.949 131.053 211.773 143.32 203.432C138.168 204.781 132.157 206.376 125.288 208.216C118.419 209.933 110.507 211.896 101.552 214.104C97.2587 215.085 92.904 216.373 88.488 217.968C84.072 219.685 79.5333 221.587 74.872 223.672C65.4267 228.088 60.704 231.461 60.704 233.792V233.976C60.704 234.712 61.5013 235.08 63.096 235.08Z" fill="#F1F1F1"/>
<path d="M188.896 218.352C186.075 218.475 183.376 218.229 180.8 217.616C178.347 217.003 175.955 216.083 173.624 214.856C169.085 212.28 166.816 208.968 166.816 204.92C166.816 196.088 177.304 187.195 198.28 178.24C199.261 176.891 201.285 174.315 204.352 170.512C205.824 168.549 207.541 166.341 209.504 163.888C211.589 161.312 213.859 158.491 216.312 155.424C220.483 150.149 224.408 145.304 228.088 140.888C231.891 136.472 235.509 132.424 238.944 128.744C236.981 129.603 235.08 130.4 233.24 131.136C231.523 131.749 229.805 132.301 228.088 132.792C228.333 132.547 228.763 132.179 229.376 131.688C230.112 131.075 230.971 130.461 231.952 129.848C232.933 129.235 234.037 128.499 235.264 127.64C236.491 126.659 237.901 125.677 239.496 124.696L249.432 118.072C250.904 116.6 253.419 115.864 256.976 115.864C259.061 115.864 260.411 116.355 261.024 117.336C261.024 117.459 261.024 117.581 261.024 117.704C261.147 117.704 261.208 117.765 261.208 117.888C261.208 118.992 260.165 120.403 258.08 122.12C254.891 124.819 250.536 128.928 245.016 134.448C239.496 139.845 232.811 146.653 224.96 154.872C223.979 155.853 222.875 157.019 221.648 158.368C220.421 159.717 219.133 161.251 217.784 162.968L208.4 174.376C212.203 173.027 216.067 171.8 219.992 170.696C224.04 169.592 228.149 168.549 232.32 167.568C232.565 167.445 233.179 167.384 234.16 167.384C235.509 167.384 236.184 167.629 236.184 168.12C236.184 168.979 234.467 169.776 231.032 170.512C224.163 171.984 217.661 174.376 211.528 177.688C205.763 180.632 202.083 183.453 200.488 186.152C196.563 191.549 194.6 195.536 194.6 198.112C194.6 199.584 195.091 200.32 196.072 200.32C199.016 200.32 201.715 199.277 204.168 197.192C205.149 196.579 206.192 196.272 207.296 196.272C208.277 196.027 208.768 196.149 208.768 196.64C208.768 196.763 208.645 196.947 208.4 197.192C199.813 202.835 193.373 205.656 189.08 205.656C186.749 205.656 185.584 204.675 185.584 202.712C185.584 202.221 185.645 201.731 185.768 201.24C186.013 200.627 186.259 199.891 186.504 199.032C187.117 197.56 188.037 195.659 189.264 193.328C190.491 190.875 191.963 188.053 193.68 184.864C178.469 191.979 170.864 198.603 170.864 204.736C170.864 207.557 172.52 209.765 175.832 211.36C179.144 212.955 183.131 213.691 187.792 213.568C192.453 213.323 197.605 212.709 203.248 211.728C208.891 210.869 215.024 209.581 221.648 207.864C232.32 205.165 240.293 202.589 245.568 200.136C270.469 188.851 282.92 176.891 282.92 164.256C282.92 160.699 281.877 157.509 279.792 154.688C277.829 151.867 275.192 149.904 271.88 148.8C264.275 153.216 257.957 156.344 252.928 158.184C250.475 159.043 248.144 159.717 245.936 160.208C243.851 160.576 241.827 160.76 239.864 160.76C235.448 160.76 233.24 159.595 233.24 157.264C233.24 153.829 236.613 150.763 243.36 148.064C249.984 145.488 257.712 144.2 266.544 144.2C268.507 144.2 270.408 144.384 272.248 144.752C286.968 135.552 294.328 126.475 294.328 117.52C294.328 111.141 290.832 106.296 283.84 102.984C276.971 99.672 267.28 98.016 254.768 98.016C244.955 98.016 234.037 100.224 222.016 104.64C206.437 110.283 196.931 117.704 193.496 126.904C193.005 127.885 192.76 129.173 192.76 130.768C192.76 133.589 193.557 136.165 195.152 138.496C196.869 140.827 198.771 142.237 200.856 142.728C203.064 143.219 204.168 144.077 204.168 145.304C204.168 146.285 203.248 146.592 201.408 146.224C197.605 145.488 194.232 143.464 191.288 140.152C188.344 136.717 186.872 133.221 186.872 129.664C186.872 127.824 187.117 126.413 187.608 125.432C191.533 114.76 200.488 106.664 214.472 101.144C226.493 96.36 240.416 93.968 256.24 93.968C270.96 93.968 281.939 96.2373 289.176 100.776C296.291 105.192 299.48 111.08 298.744 118.44C297.885 127.517 290.525 136.595 276.664 145.672C286.477 148.984 291.384 154.872 291.384 163.336C291.384 178.669 278.259 192.285 252.008 204.184C242.685 208.477 232.749 211.789 222.2 214.12C211.651 216.451 200.549 217.861 188.896 218.352ZM244.28 154.136C245.261 154.136 246.488 154.013 247.96 153.768C249.555 153.523 251.395 153.155 253.48 152.664C257.896 151.56 262.312 149.904 266.728 147.696C266.237 147.696 265.808 147.635 265.44 147.512H264.152C259 147.512 254.093 148.064 249.432 149.168C244.403 150.272 241.888 151.56 241.888 153.032C241.888 153.4 242.011 153.707 242.256 153.952C242.624 154.075 243.299 154.136 244.28 154.136Z" fill="#F1F1F1"/>
</svg>
