<svg width="328" height="328" viewBox="0 0 328 328" fill="none" xmlns="http://www.w3.org/2000/svg">
<circle cx="164" cy="164" r="162" stroke="#F1F1F1" stroke-width="4"/>
<path d="M51.2 239.496C44.6987 239.496 41.448 237.717 41.448 234.16C41.448 233.179 41.5093 232.565 41.632 232.32C42.368 229.621 47.9493 225.512 58.376 219.992C68.68 214.595 78.6773 210.731 88.368 208.4C97.2 206.315 105.664 204.475 113.76 202.88C121.856 201.163 129.645 199.752 137.128 198.648C145.224 192.147 150.131 185.645 151.848 179.144C152.216 177.795 152.4 176.568 152.4 175.464C152.4 170.68 149.088 167.307 142.464 165.344C140.501 164.731 133.693 163.627 122.04 162.032C111.245 160.56 103.763 158.904 99.592 157.064C94.1947 154.611 91.496 151.115 91.496 146.576C91.496 144.859 91.864 142.896 92.6 140.688C95.4213 131.979 104.744 123.024 120.568 113.824C137.987 103.643 154.669 98.552 170.616 98.552C182.269 98.552 188.096 101.864 188.096 108.488C188.096 111.923 186.44 116.216 183.128 121.368C181.779 123.453 180.675 124.496 179.816 124.496C179.448 124.496 179.264 124.251 179.264 123.76C179.264 123.147 179.632 122.227 180.368 121C182.208 118.056 183.128 115.419 183.128 113.088C183.128 107.2 177.792 104.256 167.12 104.256C160.373 104.256 153.811 105.053 147.432 106.648C141.176 108.12 134.981 110.267 128.848 113.088C115.845 119.344 106.829 127.563 101.8 137.744C100.696 139.952 100.144 141.853 100.144 143.448C100.144 149.213 108.179 153.323 124.248 155.776C137.373 157.616 146.205 159.272 150.744 160.744C159.331 163.443 163.44 167.184 163.072 171.968C163.44 180.187 158.901 188.528 149.456 196.992L150.744 196.808C151.235 196.685 151.848 196.624 152.584 196.624C153.32 196.624 154.179 196.624 155.16 196.624H156.08C157.184 196.624 157.736 196.992 157.736 197.728C157.736 198.955 156.571 199.629 154.24 199.752C153.627 199.875 152.952 199.936 152.216 199.936C151.48 199.936 150.744 199.997 150.008 200.12L145.224 200.672C137.741 206.56 129.277 212.019 119.832 217.048C110.387 222.077 99.776 226.677 88 230.848C71.44 236.613 59.1733 239.496 51.2 239.496ZM50.096 235.08C55.7387 235.08 67.6987 231.707 85.976 224.96C103.272 218.949 118.053 211.773 130.32 203.432C125.168 204.781 119.157 206.376 112.288 208.216C105.419 209.933 97.5067 211.896 88.552 214.104C84.2587 215.085 79.904 216.373 75.488 217.968C71.072 219.685 66.5333 221.587 61.872 223.672C52.4267 228.088 47.704 231.461 47.704 233.792V233.976C47.704 234.712 48.5013 235.08 50.096 235.08Z" fill="#F1F1F1"/>
<path d="M175.896 218.352C173.075 218.475 170.376 218.229 167.8 217.616C165.347 217.003 162.955 216.083 160.624 214.856C156.085 212.28 153.816 208.968 153.816 204.92C153.816 196.088 164.304 187.195 185.28 178.24C186.261 176.891 188.285 174.315 191.352 170.512C192.824 168.549 194.541 166.341 196.504 163.888C198.589 161.312 200.859 158.491 203.312 155.424C207.483 150.149 211.408 145.304 215.088 140.888C218.891 136.472 222.509 132.424 225.944 128.744C223.981 129.603 222.08 130.4 220.24 131.136C218.523 131.749 216.805 132.301 215.088 132.792C215.333 132.547 215.763 132.179 216.376 131.688C217.112 131.075 217.971 130.461 218.952 129.848C219.933 129.235 221.037 128.499 222.264 127.64C223.491 126.659 224.901 125.677 226.496 124.696L236.432 118.072C237.904 116.6 240.419 115.864 243.976 115.864C246.061 115.864 247.411 116.355 248.024 117.336C248.024 117.459 248.024 117.581 248.024 117.704C248.147 117.704 248.208 117.765 248.208 117.888C248.208 118.992 247.165 120.403 245.08 122.12C241.891 124.819 237.536 128.928 232.016 134.448C226.496 139.845 219.811 146.653 211.96 154.872C210.979 155.853 209.875 157.019 208.648 158.368C207.421 159.717 206.133 161.251 204.784 162.968L195.4 174.376C199.203 173.027 203.067 171.8 206.992 170.696C211.04 169.592 215.149 168.549 219.32 167.568C219.565 167.445 220.179 167.384 221.16 167.384C222.509 167.384 223.184 167.629 223.184 168.12C223.184 168.979 221.467 169.776 218.032 170.512C211.163 171.984 204.661 174.376 198.528 177.688C192.763 180.632 189.083 183.453 187.488 186.152C183.563 191.549 181.6 195.536 181.6 198.112C181.6 199.584 182.091 200.32 183.072 200.32C186.016 200.32 188.715 199.277 191.168 197.192C192.149 196.579 193.192 196.272 194.296 196.272C195.277 196.027 195.768 196.149 195.768 196.64C195.768 196.763 195.645 196.947 195.4 197.192C186.813 202.835 180.373 205.656 176.08 205.656C173.749 205.656 172.584 204.675 172.584 202.712C172.584 202.221 172.645 201.731 172.768 201.24C173.013 200.627 173.259 199.891 173.504 199.032C174.117 197.56 175.037 195.659 176.264 193.328C177.491 190.875 178.963 188.053 180.68 184.864C165.469 191.979 157.864 198.603 157.864 204.736C157.864 207.557 159.52 209.765 162.832 211.36C166.144 212.955 170.131 213.691 174.792 213.568C179.453 213.323 184.605 212.709 190.248 211.728C195.891 210.869 202.024 209.581 208.648 207.864C219.32 205.165 227.293 202.589 232.568 200.136C257.469 188.851 269.92 176.891 269.92 164.256C269.92 160.699 268.877 157.509 266.792 154.688C264.829 151.867 262.192 149.904 258.88 148.8C251.275 153.216 244.957 156.344 239.928 158.184C237.475 159.043 235.144 159.717 232.936 160.208C230.851 160.576 228.827 160.76 226.864 160.76C222.448 160.76 220.24 159.595 220.24 157.264C220.24 153.829 223.613 150.763 230.36 148.064C236.984 145.488 244.712 144.2 253.544 144.2C255.507 144.2 257.408 144.384 259.248 144.752C273.968 135.552 281.328 126.475 281.328 117.52C281.328 111.141 277.832 106.296 270.84 102.984C263.971 99.672 254.28 98.016 241.768 98.016C231.955 98.016 221.037 100.224 209.016 104.64C193.437 110.283 183.931 117.704 180.496 126.904C180.005 127.885 179.76 129.173 179.76 130.768C179.76 133.589 180.557 136.165 182.152 138.496C183.869 140.827 185.771 142.237 187.856 142.728C190.064 143.219 191.168 144.077 191.168 145.304C191.168 146.285 190.248 146.592 188.408 146.224C184.605 145.488 181.232 143.464 178.288 140.152C175.344 136.717 173.872 133.221 173.872 129.664C173.872 127.824 174.117 126.413 174.608 125.432C178.533 114.76 187.488 106.664 201.472 101.144C213.493 96.36 227.416 93.968 243.24 93.968C257.96 93.968 268.939 96.2373 276.176 100.776C283.291 105.192 286.48 111.08 285.744 118.44C284.885 127.517 277.525 136.595 263.664 145.672C273.477 148.984 278.384 154.872 278.384 163.336C278.384 178.669 265.259 192.285 239.008 204.184C229.685 208.477 219.749 211.789 209.2 214.12C198.651 216.451 187.549 217.861 175.896 218.352ZM231.28 154.136C232.261 154.136 233.488 154.013 234.96 153.768C236.555 153.523 238.395 153.155 240.48 152.664C244.896 151.56 249.312 149.904 253.728 147.696C253.237 147.696 252.808 147.635 252.44 147.512H251.152C246 147.512 241.093 148.064 236.432 149.168C231.403 150.272 228.888 151.56 228.888 153.032C228.888 153.4 229.011 153.707 229.256 153.952C229.624 154.075 230.299 154.136 231.28 154.136Z" fill="#F1F1F1"/>
</svg>
